# xmcd
#
# Track frame offsets: 
#        150
#        11845
#        22195
#        32203
#        44211
#        52909
#        63894
#        75341
#        88871
#        102267
#        113322
#        122409
#        135423
#        145469
#        156051
#        166705
#
# Disc length: 2323 seconds
#
# Revision: 1
# Processed by: cddbd v1.5.2PL0 Copyright (c) Steve Scherf et al.
# Submitted via: ExactAudioCopy v1.3
#
DISCID=c7091110
DTITLE=Glen Campbell - Ballads and Bluegrass
DYEAR=2016
DGENRE=Country
TTITLE0=Turn around, look at me
TTITLE1=Brenda
TTITLE2=Death Valley
TTITLE3=Nothin' better than a pretty woman
TTITLE4=The miracle of love
TTITLE5=Once more
TTITLE6=Too late to worry, too blue to cry
TTITLE7=How do I tell my heart not to break
TTITLE8=Long black limousine
TTITLE9=Here I am
TTITLE10=Truck drivin' man
TTITLE11=There's more pretty girls than one
TTITLE12=Weary lonesome blues
TTITLE13=No vacancy
TTITLE14=Rainin' on the mountain
TTITLE15=Kentucky means paradise
EXTD=
EXTT0=
EXTT1=
EXTT2=
EXTT3=
EXTT4=
EXTT5=
EXTT6=
EXTT7=
EXTT8=
EXTT9=
EXTT10=
EXTT11=
EXTT12=
EXTT13=
EXTT14=
EXTT15=
PLAYORDER=
